<svg xmlns="http://www.w3.org/2000/svg" viewBox="0 0 870 418" width="870" height="418" role="img" aria-label="The new batch path">
<title>The new batch path</title>
<desc>What replaced the per-recipient loop.</desc>
<style>text{font-family:-apple-system, BlinkMacSystemFont, "Segoe UI", "Noto Sans", Helvetica, Arial, sans-serif}.lanebox{fill:rgba(110,118,129,.07)}.lanelabel{font-size:10px;font-weight:700;letter-spacing:.12em;fill:#9198a1}.card{fill:#1c2128;stroke:#3d444d;stroke-width:1}.card-added{stroke:#3fb950;stroke-opacity:.55}.card-modified{stroke:#d29922;stroke-opacity:.5}.ghost{opacity:.55}.ghost .card{stroke:#f85149;stroke-dasharray:4 3;stroke-opacity:.6}.context{opacity:.82}.ntitle{font-weight:600;fill:#e6edf3}.strike{text-decoration:line-through}.nsub{font-size:9.5px;fill:#9198a1;font-family:ui-monospace, SFMono-Regular, "SF Mono", Menlo, Consolas, monospace}.chip{fill:rgba(110,118,129,.18)}.glyph{fill:#9198a1}.glyph-stroke{stroke:#9198a1;stroke-width:1.4;fill:none}.bdg text{font-size:8.5px;font-weight:700;letter-spacing:.06em}.bdg rect{stroke-width:1}.bdg-added rect{fill:rgba(46,160,67,.15);stroke:rgba(63,185,80,.4)}.bdg-added text{fill:#3fb950}.bdg-modified rect{fill:rgba(187,128,9,.15);stroke:rgba(210,153,34,.4)}.bdg-modified text{fill:#d29922}.bdg-removed rect{fill:rgba(248,81,73,.12);stroke:rgba(248,81,73,.4)}.bdg-removed text{fill:#f85149}.bdg-neutral rect{fill:rgba(110,118,129,.18);stroke:#3d444d}.bdg-neutral text{fill:#9198a1}.edge{fill:none;stroke-width:1.5}.edge-added{stroke:#3fb950}.edge-modified{stroke:#d29922}.edge-removed{stroke:#f85149;stroke-dasharray:5 4;opacity:.7}.edge-neutral{stroke:#6e7681}.hero{stroke-width:2.25}.faded{opacity:.45}.glow{fill:none;stroke-width:7;opacity:.14}.msg-self{font-size:11px;fill:#e6edf3}.lpill{fill:#0d1117;stroke:#21262d;stroke-width:1}.ltext{font-size:9.5px;font-weight:600;fill:#9198a1}.ltext-added{fill:#3fb950}.ltext-modified{fill:#d29922}.ltext-removed{fill:#f85149}.cardsh{filter:drop-shadow(0 1px 2px rgba(0,0,0,.28))}.lifeline{stroke:#30363d;stroke-width:1;stroke-dasharray:3 4}.actbar{fill:rgba(46,160,67,.15);stroke:rgba(63,185,80,.4)}.msg{fill:none;stroke-width:1.5}.msg-return{stroke-dasharray:4 3;opacity:.8}.msg-strong{stroke-width:2.25}</style>
<defs><pattern id="dots" width="18" height="18" patternUnits="userSpaceOnUse"><circle cx="1.5" cy="1.5" r="1" fill="rgba(110,118,129,.22)"/></pattern><marker id="mk-added" viewBox="0 0 10 10" refX="8" refY="5" markerWidth="6.5" markerHeight="6.5" orient="auto-start-reverse"><path d="M0,0 L10,5 L0,10 z" fill="#3fb950"/></marker><marker id="mko-added" viewBox="0 0 10 10" refX="10" refY="5" markerWidth="6.5" markerHeight="6.5" orient="auto-start-reverse"><path d="M2,1 L10,5 L2,9" fill="none" stroke="#3fb950" stroke-width="1.6" stroke-linecap="round" stroke-linejoin="round"/></marker><marker id="mk-modified" viewBox="0 0 10 10" refX="8" refY="5" markerWidth="6.5" markerHeight="6.5" orient="auto-start-reverse"><path d="M0,0 L10,5 L0,10 z" fill="#d29922"/></marker><marker id="mko-modified" viewBox="0 0 10 10" refX="10" refY="5" markerWidth="6.5" markerHeight="6.5" orient="auto-start-reverse"><path d="M2,1 L10,5 L2,9" fill="none" stroke="#d29922" stroke-width="1.6" stroke-linecap="round" stroke-linejoin="round"/></marker><marker id="mk-removed" viewBox="0 0 10 10" refX="8" refY="5" markerWidth="6.5" markerHeight="6.5" orient="auto-start-reverse"><path d="M0,0 L10,5 L0,10 z" fill="#f85149"/></marker><marker id="mko-removed" viewBox="0 0 10 10" refX="10" refY="5" markerWidth="6.5" markerHeight="6.5" orient="auto-start-reverse"><path d="M2,1 L10,5 L2,9" fill="none" stroke="#f85149" stroke-width="1.6" stroke-linecap="round" stroke-linejoin="round"/></marker><marker id="mk-neutral" viewBox="0 0 10 10" refX="8" refY="5" markerWidth="6.5" markerHeight="6.5" orient="auto-start-reverse"><path d="M0,0 L10,5 L0,10 z" fill="#6e7681"/></marker><marker id="mko-neutral" viewBox="0 0 10 10" refX="10" refY="5" markerWidth="6.5" markerHeight="6.5" orient="auto-start-reverse"><path d="M2,1 L10,5 L2,9" fill="none" stroke="#6e7681" stroke-width="1.6" stroke-linecap="round" stroke-linejoin="round"/></marker></defs>
<rect x="0" y="0" width="870" height="418" rx="12" fill="#0d1117"/>
<rect x="0" y="0" width="870" height="418" rx="12" fill="url(#dots)"/>
<g transform="translate(10,0)"><g><rect class="lanebox" x="16" y="44" width="404" height="358" rx="12"/>
<text class="lanelabel" x="32" y="68">CLOUD FUNCTIONS · FIREBASE</text>
<rect class="lanebox" x="440" y="44" width="404" height="358" rx="12"/>
<text class="lanelabel" x="456" y="68">EXTERNAL · POSTMARK</text></g>
<g><path class="edge edge-added" d="M218,154 L218,163.67 C218,169.01 222.33,173.33 227.67,173.33 L297.67,173.33 C306.69,173.33 314,180.65 314,189.67 L314,206" marker-end="url(#mk-added)"/>
<path class="edge edge-added" d="M218,154 L218,157 C218,158.66 219.34,160 221,160 L396,160 C414.78,160 430,175.22 430,194 L430,325 C430,332.18 424.18,338 417,338 L404,338" marker-end="url(#mk-added)"/>
<path class="edge edge-added" d="M218,154 L218,170.33 C218,179.35 210.69,186.67 201.67,186.67 L40,186.67 C21.22,186.67 6,201.89 6,220.67 L6,338 C6,345.18 11.82,351 19,351 L32,351" marker-end="url(#mk-added)"/>
<path class="edge edge-added" d="M404,356.5 L456,356.5" marker-end="url(#mk-added)"/>
<circle r="2.6" fill="#3fb950"><animateMotion dur="1.6s" repeatCount="indefinite" path="M404,356.5 L456,356.5"/></circle>
<path class="glow" stroke="#3fb950" d="M404,123 L409,123 C411.76,123 414,125.24 414,128 L414,322 C414,333.6 423.4,343 435,343 L456,343"/>
<path class="edge edge-added hero" d="M404,123 L409,123 C411.76,123 414,125.24 414,128 L414,322 C414,333.6 423.4,343 435,343 L456,343" marker-end="url(#mk-added)"/>
<circle r="3" fill="#3fb950"><animateMotion dur="2.1s" repeatCount="indefinite" path="M404,123 L409,123 C411.76,123 414,125.24 414,128 L414,322 C414,333.6 423.4,343 435,343 L456,343"/></circle>
<circle r="3" fill="#3fb950"><animateMotion dur="2.1s" begin="-1.4s" repeatCount="indefinite" path="M404,123 L409,123 C411.76,123 414,125.24 414,128 L414,322 C414,333.6 423.4,343 435,343 L456,343"/></circle>
<circle r="3" fill="#3fb950"><animateMotion dur="2.1s" begin="-0.7s" repeatCount="indefinite" path="M404,123 L409,123 C411.76,123 414,125.24 414,128 L414,322 C414,333.6 423.4,343 435,343 L456,343"/></circle>
<path class="edge edge-added" d="M218,154 L218,177 C218,189.7 207.7,200 195,200 L125,200 C123.34,200 122,201.34 122,203 L122,206" marker-end="url(#mk-added)"/></g>
<g><g class="cardsh"><rect class="card card-added" x="32" y="92" width="372" height="62" rx="10"/>
<rect class="chip" x="46" y="110" width="26" height="26" rx="7"/><g><text class="glyph" x="59" y="127.5" text-anchor="middle" style="font-size:14px;font-style:italic;font-family:Georgia,serif">ƒ</text></g>
<text class="ntitle" x="82" y="119" font-size="13">sendBroadcastBulk</text>
<text class="nsub" x="82" y="137">onWrite trigger</text>
<g class="bdg bdg-neutral"><rect x="314.4" y="84" width="36.05" height="16" rx="8"/><text x="332.42" y="95" text-anchor="middle">new</text></g>
<g class="bdg bdg-added"><rect x="356.45" y="84" width="40.55" height="16" rx="8"/><text x="376.73" y="95" text-anchor="middle">NEW</text></g></g>
<g class="cardsh"><rect class="card card-modified" x="32" y="206" width="180" height="62" rx="10"/>
<rect class="chip" x="46" y="224" width="26" height="26" rx="7"/><g><ellipse class="glyph-stroke" cx="59" cy="232.5" rx="6.5" ry="2.6"/>
<path class="glyph-stroke" d="M52.5,232.5 v9 a6.5,2.6 0 0 0 13 0 v-9"/></g>
<text class="ntitle" x="82" y="233" font-size="11.5">broadcastQueue</text>
<text class="nsub" x="82" y="251">Firestore collection</text>
<g class="bdg bdg-modified"><rect x="138.38" y="198" width="66.62" height="16" rx="8"/><text x="171.69" y="209" text-anchor="middle">CHANGED</text></g></g>
<g class="cardsh"><rect class="card card-added" x="224" y="206" width="180" height="52" rx="10"/>
<rect class="chip" x="238" y="219" width="26" height="26" rx="7"/><g><text class="glyph" x="251" y="236.5" text-anchor="middle" style="font-size:14px;font-style:italic;font-family:Georgia,serif">ƒ</text></g>
<text class="ntitle" x="274" y="237" font-size="11.5">buildBulkPayload</text>
<g class="bdg bdg-added"><rect x="356.45" y="198" width="40.55" height="16" rx="8"/><text x="376.73" y="209" text-anchor="middle">NEW</text></g></g>
<g class="cardsh"><rect class="card card-added" x="32" y="320" width="180" height="62" rx="10"/>
<rect class="chip" x="46" y="338" width="26" height="26" rx="7"/><g><path class="glyph-stroke" d="M59,344 l6.5,3.5 v7 l-6.5,3.5 l-6.5,-3.5 v-7 Z"/>
<path class="glyph-stroke" d="M52.5,347.5 l6.5,3.5 l6.5,-3.5"/>
<path class="glyph-stroke" d="M59,351 v7"/></g>
<text class="ntitle" x="82" y="347" font-size="11.5">broadcast-lib</text>
<text class="nsub" x="82" y="365">packages/broadcast-…</text>
<g class="bdg bdg-neutral"><rect x="81.75" y="312" width="76.7" height="16" rx="8"/><text x="120.1" y="323" text-anchor="middle">new package</text></g>
<g class="bdg bdg-added"><rect x="164.45" y="312" width="40.55" height="16" rx="8"/><text x="184.73" y="323" text-anchor="middle">NEW</text></g></g>
<g class="cardsh"><rect class="card card-added" x="224" y="320" width="180" height="52" rx="10"/>
<rect class="chip" x="238" y="333" width="26" height="26" rx="7"/><g><text class="glyph" x="251" y="350.5" text-anchor="middle" style="font-size:14px;font-style:italic;font-family:Georgia,serif">ƒ</text></g>
<text class="ntitle" x="274" y="351" font-size="11.5">getSuppressedEma…</text>
<g class="bdg bdg-added"><rect x="356.45" y="312" width="40.55" height="16" rx="8"/><text x="376.73" y="323" text-anchor="middle">NEW</text></g></g>
<g class="cardsh"><rect class="card card-modified" x="456" y="320" width="372" height="62" rx="10"/>
<rect class="chip" x="470" y="338" width="26" height="26" rx="7"/><g><rect class="glyph-stroke" x="475" y="345" width="16" height="12" rx="2"/>
<path class="glyph-stroke" d="M475,347 l8,6 8,-6"/></g>
<text class="ntitle" x="506" y="347" font-size="13">Postmark</text>
<text class="nsub" x="506" y="365">Email API</text>
<g class="bdg bdg-modified"><rect x="754.38" y="312" width="66.62" height="16" rx="8"/><text x="787.69" y="323" text-anchor="middle">CHANGED</text></g></g></g>
<g><g><rect class="lpill" x="369.11" y="349" width="121.78" height="15" rx="7.5"/><text class="ltext ltext-added" x="430" y="360" text-anchor="middle">GET suppression dump</text></g>
<g><rect class="lpill" x="375.22" y="217.5" width="77.56" height="15" rx="7.5"/><text class="ltext ltext-added" x="414" y="228.5" text-anchor="middle">500 msgs/call</text></g>
<g><rect class="lpill" x="125.15" y="192.5" width="69.71" height="15" rx="7.5"/><text class="ltext ltext-added" x="160" y="203.5" text-anchor="middle">write results</text></g></g></g>
</svg>