<svg xmlns="http://www.w3.org/2000/svg" viewBox="0 0 2270 1146" width="2270" height="1146" role="img" aria-label="Tier 4 — checkout platform">
<title>Tier 4 — checkout platform</title>
<desc>Five lanes, cross-lane conversations, bidirectional pairs, a retired charge path.</desc>
<style>text{font-family:-apple-system, BlinkMacSystemFont, "Segoe UI", "Noto Sans", Helvetica, Arial, sans-serif}.lanebox{fill:#f6f8fa}.lanelabel{font-size:10px;font-weight:700;letter-spacing:.12em;fill:#59636e}.card{fill:#ffffff;stroke:#d1d9e0;stroke-width:1}.card-added{stroke:#1a7f37;stroke-opacity:.55}.card-modified{stroke:#9a6700;stroke-opacity:.5}.ghost{opacity:.55}.ghost .card{stroke:#d1242f;stroke-dasharray:4 3;stroke-opacity:.6}.context{opacity:.82}.ntitle{font-weight:600;fill:#1f2328}.strike{text-decoration:line-through}.nsub{font-size:9.5px;fill:#59636e;font-family:ui-monospace, SFMono-Regular, "SF Mono", Menlo, Consolas, monospace}.chip{fill:#f6f8fa}.glyph{fill:#59636e}.glyph-stroke{stroke:#59636e;stroke-width:1.4;fill:none}.bdg text{font-size:8.5px;font-weight:700;letter-spacing:.06em}.bdg rect{stroke-width:1}.bdg-added rect{fill:#dafbe1;stroke:rgba(31,136,61,.4)}.bdg-added text{fill:#1a7f37}.bdg-modified rect{fill:#fff8c5;stroke:rgba(154,103,0,.35)}.bdg-modified text{fill:#9a6700}.bdg-removed rect{fill:#ffebe9;stroke:rgba(209,36,47,.35)}.bdg-removed text{fill:#d1242f}.bdg-neutral rect{fill:#f6f8fa;stroke:#d1d9e0}.bdg-neutral text{fill:#59636e}.edge{fill:none;stroke-width:1.5}.edge-added{stroke:#1a7f37}.edge-modified{stroke:#9a6700}.edge-removed{stroke:#d1242f;stroke-dasharray:5 4;opacity:.7}.edge-neutral{stroke:#8c959f}.hero{stroke-width:2.25}.faded{opacity:.45}.glow{fill:none;stroke-width:7;opacity:.14}.msg-self{font-size:11px;fill:#1f2328}.lpill{fill:#ffffff;stroke:#d8dee4;stroke-width:1}.ltext{font-size:9.5px;font-weight:600;fill:#59636e}.ltext-added{fill:#1a7f37}.ltext-modified{fill:#9a6700}.ltext-removed{fill:#d1242f}.cardsh{filter:drop-shadow(0 1px 2px rgba(31,35,40,.14))}.pcard{fill:#ffffff;stroke:#d1d9e0;stroke-width:1}.ptitle{font-size:12px;font-weight:600;fill:#1f2328;text-anchor:middle}.lifeline{stroke:#d1d9e0;stroke-width:1;stroke-dasharray:3 4}.actbar{fill:#dafbe1;stroke:rgba(31,136,61,.4)}.msg{fill:none;stroke-width:1.4}.msg-return{stroke-dasharray:4 3;opacity:.8}.msg-label{font-size:11px;fill:#1f2328;text-anchor:middle}.msg-strong{stroke-width:2}</style>
<defs><pattern id="dots" width="18" height="18" patternUnits="userSpaceOnUse"><circle cx="1.5" cy="1.5" r="1" fill="rgba(140,149,159,.35)"/></pattern><marker id="mk-added" viewBox="0 0 10 10" refX="8" refY="5" markerWidth="6.5" markerHeight="6.5" orient="auto-start-reverse"><path d="M0,0 L10,5 L0,10 z" fill="#1a7f37"/></marker><marker id="mk-modified" viewBox="0 0 10 10" refX="8" refY="5" markerWidth="6.5" markerHeight="6.5" orient="auto-start-reverse"><path d="M0,0 L10,5 L0,10 z" fill="#9a6700"/></marker><marker id="mk-removed" viewBox="0 0 10 10" refX="8" refY="5" markerWidth="6.5" markerHeight="6.5" orient="auto-start-reverse"><path d="M0,0 L10,5 L0,10 z" fill="#d1242f"/></marker><marker id="mk-neutral" viewBox="0 0 10 10" refX="8" refY="5" markerWidth="6.5" markerHeight="6.5" orient="auto-start-reverse"><path d="M0,0 L10,5 L0,10 z" fill="#8c959f"/></marker></defs>
<rect x="0" y="0" width="2270" height="1146" rx="12" fill="#ffffff"/>
<rect x="0" y="0" width="2270" height="1146" rx="12" fill="url(#dots)"/>
<g><rect class="lanebox" x="16" y="44" width="404" height="1086" rx="12"/>
<text class="lanelabel" x="32" y="68">WEB</text>
<rect class="lanebox" x="440" y="44" width="404" height="1086" rx="12"/>
<text class="lanelabel" x="456" y="68">API</text>
<rect class="lanebox" x="904" y="44" width="404" height="1086" rx="12"/>
<text class="lanelabel" x="920" y="68">WORKERS</text>
<rect class="lanebox" x="1398" y="44" width="404" height="1086" rx="12"/>
<text class="lanelabel" x="1414" y="68">DATA</text>
<rect class="lanebox" x="1832" y="44" width="404" height="1086" rx="12"/>
<text class="lanelabel" x="1848" y="68">EXTERNAL</text></g>
<g><path class="edge edge-neutral context" d="M170,144 L170,206" marker-end="url(#mk-neutral)"/>
<path class="edge edge-modified" d="M404,232 L417,232 C424.18,232 430,237.82 430,245 L430,323 C430,330.18 435.82,336 443,336 L456,336" marker-end="url(#mk-modified)"/>
<path class="edge edge-neutral context" d="M404,118 L409,118 C411.76,118 414,120.24 414,123 L414,211 C414,222.6 423.4,232 435,232 L456,232" marker-end="url(#mk-neutral)"/>
<path class="edge edge-neutral context" d="M828,232 L841,232 C848.18,232 854,237.82 854,245 L854,258 C854,272.36 865.64,284 880,284 L1289.5,284 C1305.24,284 1318,296.76 1318,312.5 C1318,328.24 1330.76,341 1346.5,341 L1414,341" marker-end="url(#mk-neutral)"/>
<path class="edge edge-added" d="M642,362 L642,424" marker-end="url(#mk-added)"/>
<path class="glow" stroke="#1a7f37" d="M828,458 L861,458 C879.23,458 894,472.77 894,491 L894,562 C894,580.78 909.22,596 928,596 L1792,596 C1808.57,596 1822,609.43 1822,626 L1822,643 C1822,650.18 1827.82,656 1835,656 L1848,656"/>
<path class="edge edge-added hero" d="M828,458 L861,458 C879.23,458 894,472.77 894,491 L894,562 C894,580.78 909.22,596 928,596 L1792,596 C1808.57,596 1822,609.43 1822,626 L1822,643 C1822,650.18 1827.82,656 1835,656 L1848,656" marker-end="url(#mk-added)"/>
<circle r="3" fill="#1a7f37"><animateMotion dur="2.1s" repeatCount="indefinite" path="M828,458 L861,458 C879.23,458 894,472.77 894,491 L894,562 C894,580.78 909.22,596 928,596 L1792,596 C1808.57,596 1822,609.43 1822,626 L1822,643 C1822,650.18 1827.82,656 1835,656 L1848,656"/></circle>
<circle r="3" fill="#1a7f37"><animateMotion dur="2.1s" begin="0.7s" repeatCount="indefinite" path="M828,458 L861,458 C879.23,458 894,472.77 894,491 L894,562 C894,580.78 909.22,596 928,596 L1792,596 C1808.57,596 1822,609.43 1822,626 L1822,643 C1822,650.18 1827.82,656 1835,656 L1848,656"/></circle>
<circle r="3" fill="#1a7f37"><animateMotion dur="2.1s" begin="1.4s" repeatCount="indefinite" path="M828,458 L861,458 C879.23,458 894,472.77 894,491 L894,562 C894,580.78 909.22,596 928,596 L1792,596 C1808.57,596 1822,609.43 1822,626 L1822,643 C1822,650.18 1827.82,656 1835,656 L1848,656"/></circle>
<path class="edge edge-added" d="M828,442 L856,442 C871.46,442 884,454.54 884,470 L884,478 C884,496.78 899.22,512 918,512 L1766,512 C1780.36,512 1792,523.64 1792,538 C1792,552.36 1803.64,564 1818,564 L1848,564" marker-end="url(#mk-added)"/>
<path class="edge edge-modified" d="M828,328 L846,328 C855.94,328 864,336.06 864,346 L864,364 C864,382.78 879.22,398 898,398 L1302.33,398 C1316.51,398 1328,409.49 1328,423.67 C1328,437.84 1339.49,449.33 1353.67,449.33 L1414,449.33" marker-end="url(#mk-modified)"/>
<path class="edge edge-added" d="M1848,680 L1840,680 C1835.58,680 1832,683.58 1832,688 L1832,704 C1832,717.26 1821.26,728 1808,728 L468,728 C455.85,728 446,737.85 446,750 L446,751 C446,762.6 436.6,772 425,772 L404,772" marker-end="url(#mk-added)"/>
<path class="edge edge-added" d="M1106,154 L1106,175 C1106,186.6 1096.6,196 1085,196 L878,196 C859.22,196 844,211.22 844,230 L844,530 C844,548.78 859.22,564 878,564 L920,564" marker-end="url(#mk-added)"/>
<path class="edge edge-added" d="M1106,154 L1106,206" marker-end="url(#mk-added)"/>
<path class="edge edge-added" d="M1292,564 L1325.33,564 C1337.85,564 1348,574.15 1348,586.67 C1348,599.19 1358.15,609.33 1370.67,609.33 L1784.67,609.33 C1799.76,609.33 1812,621.57 1812,636.67 L1812,646 C1812,655.94 1820.06,664 1830,664 L1848,664" marker-end="url(#mk-added)"/>
<path class="edge edge-added" d="M1292,576 L1334,576 C1352.78,576 1368,591.22 1368,610 L1368,645 C1368,657.7 1378.3,668 1391,668 L1414,668" marker-end="url(#mk-added)"/>
<path class="edge edge-added" d="M1292,570 L1325,570 C1343.23,570 1358,584.77 1358,603 C1358,621.23 1372.77,636 1391,636 L1693,636 C1694.66,636 1696,637.34 1696,639 L1696,642" marker-end="url(#mk-added)"/>
<path class="edge edge-added" d="M1292,552 L1364,552 C1382.78,552 1398,536.78 1398,518 L1398,468.67 C1398,464.25 1401.58,460.67 1406,460.67 L1414,460.67" marker-end="url(#mk-added)"/>
<path class="edge edge-added" d="M1414,472 L1372,472 C1353.22,472 1338,487.22 1338,506 L1338,535 C1338,547.7 1327.7,558 1315,558 L1292,558" marker-end="url(#mk-added)"/>
<path class="edge edge-modified" d="M828,118 L831,118 C832.66,118 834,119.34 834,121 L834,198 C834,216.78 849.22,232 868,232 L920,232" marker-end="url(#mk-modified)"/>
<path class="edge edge-modified" d="M1292,240 L1300,240 C1304.42,240 1308,243.58 1308,248 L1308,588.67 C1308,607.44 1323.22,622.67 1342,622.67 L1777.33,622.67 C1790.96,622.67 1802,633.71 1802,647.33 L1802,649 C1802,661.7 1812.3,672 1825,672 L1848,672" marker-end="url(#mk-modified)"/>
<path class="edge edge-modified" d="M1292,224 L1295,224 C1296.66,224 1298,225.34 1298,227 L1298,404 C1298,422.78 1313.22,438 1332,438 L1414,438" marker-end="url(#mk-modified)"/>
<path class="edge edge-added" d="M1696,694 L1696,703 C1696,707.97 1691.97,712 1687,712 L1404,712 C1389.64,712 1378,723.64 1378,738 C1378,752.36 1366.36,764 1352,764 L1292,764" marker-end="url(#mk-added)"/>
<path class="edge edge-neutral context" d="M1292,780 L1366,780 C1378.15,780 1388,789.85 1388,802 C1388,814.15 1397.85,824 1410,824 L1816,824 C1830.36,824 1842,835.64 1842,850 L1842,873 C1842,874.66 1843.34,876 1845,876 L1848,876" marker-end="url(#mk-neutral)"/>
<path class="edge edge-removed" d="M828,344 L855,344 C865.49,344 874,352.51 874,363 C874,373.49 882.51,382 893,382 L2204,382 C2222.78,382 2238,397.22 2238,416 L2238,894 C2238,912.78 2222.78,928 2204,928 L926,928 C913.85,928 904,937.85 904,950 C904,962.15 894.15,972 882,972 L828,972" marker-end="url(#mk-removed)"/>
<path class="edge edge-removed" d="M828,988 L880,988 C898.78,988 914,1003.22 914,1022 L914,1081 C914,1082.66 915.34,1084 917,1084 L920,1084" marker-end="url(#mk-removed)"/>
<path class="edge edge-removed" d="M1292,1084 L1382,1084 C1396.36,1084 1408,1072.36 1408,1058 C1408,1043.64 1419.64,1032 1434,1032 L2220,1032 C2238.78,1032 2254,1016.78 2254,998 L2254,685 C2254,675.61 2246.39,668 2237,668 L2220,668" marker-end="url(#mk-removed)"/></g>
<g><g class="cardsh context"><rect class="card" x="32" y="92" width="180" height="52" rx="10"/>
<text class="ntitle" x="46" y="123" font-size="11.5">Storefront</text></g>
<g class="cardsh context"><rect class="card" x="224" y="92" width="180" height="52" rx="10"/>
<text class="ntitle" x="238" y="123" font-size="11.5">Account page</text></g>
<g class="cardsh"><rect class="card card-modified" x="32" y="206" width="372" height="52" rx="10"/>
<rect class="chip" x="46" y="219" width="26" height="26" rx="7"/><g><rect class="glyph-stroke" x="52" y="226" width="14" height="12" rx="2"/>
<path class="glyph-stroke" d="M56.5,226 v12"/></g>
<text class="ntitle" x="82" y="237" font-size="13">Checkout page</text>
<g class="bdg bdg-modified"><rect x="330.38" y="198" width="66.62" height="16" rx="8"/><text x="363.69" y="209" text-anchor="middle">CHANGED</text></g></g>
<g class="cardsh"><rect class="card card-added" x="32" y="746" width="372" height="52" rx="10"/>
<rect class="chip" x="46" y="759" width="26" height="26" rx="7"/><g><rect class="glyph-stroke" x="52" y="766" width="14" height="12" rx="2"/>
<path class="glyph-stroke" d="M56.5,766 v12"/></g>
<text class="ntitle" x="82" y="777" font-size="13">Webhooks console</text>
<g class="bdg bdg-added"><rect x="356.45" y="738" width="40.55" height="16" rx="8"/><text x="376.73" y="749" text-anchor="middle">NEW</text></g></g>
<g class="cardsh"><rect class="card card-modified" x="456" y="92" width="372" height="52" rx="10"/>
<rect class="chip" x="470" y="105" width="26" height="26" rx="7"/><g><path class="glyph" d="M476,112 L490,118 L476,124 Z"/></g>
<text class="ntitle" x="506" y="123" font-size="13">POST /refunds</text>
<g class="bdg bdg-modified"><rect x="754.38" y="84" width="66.62" height="16" rx="8"/><text x="787.69" y="95" text-anchor="middle">CHANGED</text></g></g>
<g class="cardsh context"><rect class="card" x="456" y="206" width="372" height="52" rx="10"/>
<rect class="chip" x="470" y="219" width="26" height="26" rx="7"/><g><text class="glyph" x="483" y="236.5" text-anchor="middle" style="font-size:14px;font-style:italic;font-family:Georgia,serif">ƒ</text></g>
<text class="ntitle" x="506" y="237" font-size="13">sessionMiddleware</text></g>
<g class="cardsh"><rect class="card card-modified" x="456" y="310" width="372" height="52" rx="10"/>
<rect class="chip" x="470" y="323" width="26" height="26" rx="7"/><g><path class="glyph" d="M476,330 L490,336 L476,342 Z"/></g>
<text class="ntitle" x="506" y="341" font-size="13">POST /checkout</text>
<g class="bdg bdg-modified"><rect x="754.38" y="302" width="66.62" height="16" rx="8"/><text x="787.69" y="313" text-anchor="middle">CHANGED</text></g></g>
<g class="cardsh"><rect class="card card-added" x="456" y="424" width="372" height="52" rx="10"/>
<rect class="chip" x="470" y="437" width="26" height="26" rx="7"/><g><text class="glyph" x="483" y="454.5" text-anchor="middle" style="font-size:14px;font-style:italic;font-family:Georgia,serif">ƒ</text></g>
<text class="ntitle" x="506" y="455" font-size="13">createPaymentIntent</text>
<g class="bdg bdg-added"><rect x="780.45" y="416" width="40.55" height="16" rx="8"/><text x="800.73" y="427" text-anchor="middle">NEW</text></g></g>
<g class="cardsh ghost"><rect class="card" x="456" y="954" width="372" height="52" rx="10"/>
<rect class="chip" x="470" y="967" width="26" height="26" rx="7"/><g><path class="glyph" d="M476,974 L490,980 L476,986 Z"/></g>
<text class="ntitle strike" x="506" y="985" font-size="13">POST /charge (v1)</text>
<g class="bdg bdg-removed"><rect x="753.88" y="946" width="67.12" height="16" rx="8"/><text x="787.44" y="957" text-anchor="middle">REMOVED</text></g></g>
<g class="cardsh"><rect class="card card-added" x="920" y="92" width="372" height="62" rx="10"/>
<rect class="chip" x="934" y="110" width="26" height="26" rx="7"/><g><circle class="glyph-stroke" cx="947" cy="123" r="6.5"/>
<path class="glyph-stroke" d="M947,119.5 V123 H950"/></g>
<text class="ntitle" x="970" y="119" font-size="13">retryScheduler</text>
<text class="nsub" x="970" y="137">cron</text>
<g class="bdg bdg-added"><rect x="1244.45" y="84" width="40.55" height="16" rx="8"/><text x="1264.73" y="95" text-anchor="middle">NEW</text></g></g>
<g class="cardsh"><rect class="card card-modified" x="920" y="206" width="372" height="52" rx="10"/>
<rect class="chip" x="934" y="219" width="26" height="26" rx="7"/><g><circle class="glyph-stroke" cx="947" cy="232" r="6.5"/>
<path class="glyph-stroke" d="M947,228.5 V232 H950"/></g>
<text class="ntitle" x="970" y="237" font-size="13">refundWorker</text>
<g class="bdg bdg-modified"><rect x="1218.38" y="198" width="66.62" height="16" rx="8"/><text x="1251.69" y="209" text-anchor="middle">CHANGED</text></g></g>
<g class="cardsh"><rect class="card card-added" x="920" y="538" width="372" height="52" rx="10"/>
<rect class="chip" x="934" y="551" width="26" height="26" rx="7"/><g><circle class="glyph-stroke" cx="947" cy="564" r="6.5"/>
<path class="glyph-stroke" d="M947,560.5 V564 H950"/></g>
<text class="ntitle" x="970" y="569" font-size="13">captureWorker</text>
<g class="bdg bdg-added"><rect x="1244.45" y="530" width="40.55" height="16" rx="8"/><text x="1264.73" y="541" text-anchor="middle">NEW</text></g></g>
<g class="cardsh context"><rect class="card" x="920" y="746" width="372" height="52" rx="10"/>
<rect class="chip" x="934" y="759" width="26" height="26" rx="7"/><g><circle class="glyph-stroke" cx="947" cy="772" r="6.5"/>
<path class="glyph-stroke" d="M947,768.5 V772 H950"/></g>
<text class="ntitle" x="970" y="777" font-size="13">emailWorker</text></g>
<g class="cardsh ghost"><rect class="card" x="920" y="1058" width="372" height="52" rx="10"/>
<rect class="chip" x="934" y="1071" width="26" height="26" rx="7"/><g><circle class="glyph-stroke" cx="947" cy="1084" r="6.5"/>
<path class="glyph-stroke" d="M947,1080.5 V1084 H950"/></g>
<text class="ntitle strike" x="970" y="1089" font-size="13">captureCron (v1)</text>
<g class="bdg bdg-removed"><rect x="1217.88" y="1050" width="67.12" height="16" rx="8"/><text x="1251.44" y="1061" text-anchor="middle">REMOVED</text></g></g>
<g class="cardsh context"><rect class="card" x="1414" y="310" width="372" height="62" rx="10"/>
<rect class="chip" x="1428" y="328" width="26" height="26" rx="7"/><g><path class="glyph" d="M1442,334 L1435,342 H1440 L1440,348 L1447,340 H1442 Z"/></g>
<text class="ntitle" x="1464" y="337" font-size="13">sessions</text>
<text class="nsub" x="1464" y="355">Redis</text></g>
<g class="cardsh"><rect class="card card-modified" x="1414" y="424" width="372" height="62" rx="10"/>
<rect class="chip" x="1428" y="442" width="26" height="26" rx="7"/><g><ellipse class="glyph-stroke" cx="1441" cy="450.5" rx="6.5" ry="2.6"/>
<path class="glyph-stroke" d="M1434.5,450.5 v9 a6.5,2.6 0 0 0 13 0 v-9"/></g>
<text class="ntitle" x="1464" y="451" font-size="13">orders</text>
<text class="nsub" x="1464" y="469">Postgres</text>
<g class="bdg bdg-modified"><rect x="1712.38" y="416" width="66.62" height="16" rx="8"/><text x="1745.69" y="427" text-anchor="middle">CHANGED</text></g></g>
<g class="cardsh"><rect class="card card-added" x="1414" y="642" width="180" height="52" rx="10"/>
<text class="ntitle" x="1428" y="673" font-size="11.5">paymentsLedger</text>
<g class="bdg bdg-added"><rect x="1546.45" y="634" width="40.55" height="16" rx="8"/><text x="1566.73" y="645" text-anchor="middle">NEW</text></g></g>
<g class="cardsh"><rect class="card card-added" x="1606" y="642" width="180" height="52" rx="10"/>
<text class="ntitle" x="1620" y="673" font-size="11.5">eventsOutbox</text>
<g class="bdg bdg-added"><rect x="1738.45" y="634" width="40.55" height="16" rx="8"/><text x="1758.73" y="645" text-anchor="middle">NEW</text></g></g>
<g class="cardsh"><rect class="card card-added" x="1848" y="538" width="372" height="52" rx="10"/>
<rect class="chip" x="1862" y="551" width="26" height="26" rx="7"/><g><rect class="glyph-stroke" x="1867" y="558" width="16" height="12" rx="2"/>
<path class="glyph-stroke" d="M1867,560 l8,6 8,-6"/></g>
<text class="ntitle" x="1898" y="569" font-size="13">TaxJar</text>
<g class="bdg bdg-added"><rect x="2172.45" y="530" width="40.55" height="16" rx="8"/><text x="2192.73" y="541" text-anchor="middle">NEW</text></g></g>
<g class="cardsh"><rect class="card card-modified" x="1848" y="642" width="372" height="52" rx="10"/>
<rect class="chip" x="1862" y="655" width="26" height="26" rx="7"/><g><rect class="glyph-stroke" x="1867" y="662" width="16" height="12" rx="2"/>
<path class="glyph-stroke" d="M1867,664 l8,6 8,-6"/></g>
<text class="ntitle" x="1898" y="673" font-size="13">Stripe</text>
<g class="bdg bdg-modified"><rect x="2146.38" y="634" width="66.62" height="16" rx="8"/><text x="2179.69" y="645" text-anchor="middle">CHANGED</text></g></g>
<g class="cardsh context"><rect class="card" x="1848" y="850" width="372" height="52" rx="10"/>
<rect class="chip" x="1862" y="863" width="26" height="26" rx="7"/><g><rect class="glyph-stroke" x="1867" y="870" width="16" height="12" rx="2"/>
<path class="glyph-stroke" d="M1867,872 l8,6 8,-6"/></g>
<text class="ntitle" x="1898" y="881" font-size="13">Mailgun</text></g></g>
<g><g><rect class="lpill" x="128.14" y="167.5" width="83.73" height="15" rx="7.5"/><text class="ltext" x="170" y="178.5" text-anchor="middle">begin checkout</text></g>
<g><rect class="lpill" x="385.34" y="276.5" width="89.32" height="15" rx="7.5"/><text class="ltext ltext-modified" x="430" y="287.5" text-anchor="middle">POST /checkout</text></g>
<g><rect class="lpill" x="1043.45" y="276.5" width="82.6" height="15" rx="7.5"/><text class="ltext" x="1084.75" y="287.5" text-anchor="middle">session lookup</text></g>
<g><rect class="lpill" x="606.29" y="385.5" width="71.42" height="15" rx="7.5"/><text class="ltext ltext-added" x="642" y="396.5" text-anchor="middle">create intent</text></g>
<g><rect class="lpill" x="1310.02" y="588.5" width="99.96" height="15" rx="7.5"/><text class="ltext ltext-added" x="1360" y="599.5" text-anchor="middle">PaymentIntent API</text></g>
<g><rect class="lpill" x="1313.29" y="504.5" width="57.43" height="15" rx="7.5"/><text class="ltext ltext-added" x="1342" y="515.5" text-anchor="middle">quote tax</text></g>
<g><rect class="lpill" x="1068.39" y="390.5" width="63.56" height="15" rx="7.5"/><text class="ltext ltext-modified" x="1100.17" y="401.5" text-anchor="middle">write order</text></g>
<g><rect class="lpill" x="1093.62" y="720.5" width="88.77" height="15" rx="7.5"/><text class="ltext ltext-added" x="1138" y="731.5" text-anchor="middle">webhook events</text></g>
<g><rect class="lpill" x="1552.88" y="601.83" width="49.58" height="15" rx="7.5"/><text class="ltext ltext-added" x="1577.67" y="612.83" text-anchor="middle">capture</text></g>
<g><rect class="lpill" x="1282.89" y="568.5" width="60.22" height="15" rx="7.5"/><text class="ltext ltext-added" x="1313" y="579.5" text-anchor="middle">post entry</text></g>
<g><rect class="lpill" x="1289.77" y="544.5" width="76.46" height="15" rx="7.5"/><text class="ltext ltext-added" x="1328" y="555.5" text-anchor="middle">update status</text></g>
<g><rect class="lpill" x="1351.42" y="464.5" width="83.17" height="15" rx="7.5"/><text class="ltext ltext-added" x="1393" y="475.5" text-anchor="middle">order snapshot</text></g>
<g><rect class="lpill" x="790.73" y="152" width="86.54" height="15" rx="7.5"/><text class="ltext ltext-modified" x="834" y="163" text-anchor="middle">enqueue refund</text></g>
<g><rect class="lpill" x="1487.3" y="615.17" width="63.58" height="15" rx="7.5"/><text class="ltext ltext-modified" x="1519.09" y="626.17" text-anchor="middle">refund API</text></g>
<g><rect class="lpill" x="1257.54" y="308" width="80.92" height="15" rx="7.5"/><text class="ltext ltext-modified" x="1298" y="319" text-anchor="middle">mark refunded</text></g>
<g><rect class="lpill" x="1513.15" y="704.5" width="64.7" height="15" rx="7.5"/><text class="ltext ltext-added" x="1545.5" y="715.5" text-anchor="middle">outbox poll</text></g>
<g><rect class="lpill" x="1577.58" y="816.5" width="70.85" height="15" rx="7.5"/><text class="ltext" x="1613" y="827.5" text-anchor="middle">send receipt</text></g>
<g><rect class="lpill" x="1497.69" y="374.5" width="101.62" height="15" rx="7.5"/><text class="ltext ltext-removed" x="1548.5" y="385.5" text-anchor="middle">direct charge (was)</text></g>
<g><rect class="lpill" x="864.31" y="1044" width="99.38" height="15" rx="7.5"/><text class="ltext ltext-removed" x="914" y="1055" text-anchor="middle">capture later (was)</text></g>
<g><rect class="lpill" x="1771.71" y="1024.5" width="110.58" height="15" rx="7.5"/><text class="ltext ltext-removed" x="1827" y="1035.5" text-anchor="middle">charge capture (was)</text></g></g>
</svg>