<svg xmlns="http://www.w3.org/2000/svg" viewBox="0 0 1355 1240" width="1355" height="1240" role="img" aria-label="Dense synthetic" font-family="-apple-system, BlinkMacSystemFont, &quot;Segoe UI&quot;, &quot;Noto Sans&quot;, Helvetica, Arial, sans-serif">
<title>Dense synthetic</title>
<desc>A synthetic change dense enough to exercise every routing rule.</desc>
<defs><pattern id="dots" width="18" height="18" patternUnits="userSpaceOnUse"><circle cx="1.5" cy="1.5" r="1" fill="rgba(140,149,159,.5)"/></pattern><marker id="mk-added" viewBox="0 0 10 10" refX="8" refY="5" markerWidth="6.5" markerHeight="6.5" orient="auto-start-reverse"><path d="M0,0 L10,5 L0,10 z" fill="#1f883d"/></marker><marker id="mko-added" viewBox="0 0 10 10" refX="10" refY="5" markerWidth="6.5" markerHeight="6.5" orient="auto-start-reverse"><path d="M2,1 L10,5 L2,9" fill="none" stroke="#1f883d" stroke-width="1.6" stroke-linecap="round" stroke-linejoin="round"/></marker><marker id="mk-modified" viewBox="0 0 10 10" refX="8" refY="5" markerWidth="6.5" markerHeight="6.5" orient="auto-start-reverse"><path d="M0,0 L10,5 L0,10 z" fill="#bf8700"/></marker><marker id="mko-modified" viewBox="0 0 10 10" refX="10" refY="5" markerWidth="6.5" markerHeight="6.5" orient="auto-start-reverse"><path d="M2,1 L10,5 L2,9" fill="none" stroke="#bf8700" stroke-width="1.6" stroke-linecap="round" stroke-linejoin="round"/></marker><marker id="mk-removed" viewBox="0 0 10 10" refX="8" refY="5" markerWidth="6.5" markerHeight="6.5" orient="auto-start-reverse"><path d="M0,0 L10,5 L0,10 z" fill="#cf222e"/></marker><marker id="mko-removed" viewBox="0 0 10 10" refX="10" refY="5" markerWidth="6.5" markerHeight="6.5" orient="auto-start-reverse"><path d="M2,1 L10,5 L2,9" fill="none" stroke="#cf222e" stroke-width="1.6" stroke-linecap="round" stroke-linejoin="round"/></marker><marker id="mk-neutral" viewBox="0 0 10 10" refX="8" refY="5" markerWidth="6.5" markerHeight="6.5" orient="auto-start-reverse"><path d="M0,0 L10,5 L0,10 z" fill="#8c959f"/></marker><marker id="mko-neutral" viewBox="0 0 10 10" refX="10" refY="5" markerWidth="6.5" markerHeight="6.5" orient="auto-start-reverse"><path d="M2,1 L10,5 L2,9" fill="none" stroke="#8c959f" stroke-width="1.6" stroke-linecap="round" stroke-linejoin="round"/></marker></defs>
<rect x="0" y="0" width="1355" height="1240" rx="12" fill="#f4f5f7"/>
<rect x="0" y="0" width="1355" height="1240" rx="12" fill="url(#dots)"/>
<g><rect class="lanebox" x="16" y="44" width="404" height="1180" rx="12" fill="rgba(255,255,255,.55)"/>
<text class="lanelabel" x="32" y="68" font-size="10" font-weight="700" letter-spacing=".12em" fill="#59636e">UI</text>
<rect class="lanebox" x="440" y="44" width="404" height="1180" rx="12" fill="rgba(255,255,255,.55)"/>
<text class="lanelabel" x="456" y="68" font-size="10" font-weight="700" letter-spacing=".12em" fill="#59636e">CORE</text>
<rect class="lanebox" x="884" y="44" width="404" height="1180" rx="12" fill="rgba(255,255,255,.55)"/>
<text class="lanelabel" x="900" y="68" font-size="10" font-weight="700" letter-spacing=".12em" fill="#59636e">INFRA</text></g>
<g><path class="edge edge-neutral context" d="M122,144 L122,153 C122,157.97 126.03,162 131,162 L396,162 C409.26,162 420,172.74 420,186 L420,192 C420,201.94 428.06,210 438,210 L456,210" marker-end="url(#mk-neutral)" fill="none" stroke-width="1.5" stroke="#8c959f" opacity="0.82"/>
<path class="edge edge-neutral context" d="M642,248 L642,300" marker-end="url(#mk-neutral)" fill="none" stroke-width="1.5" stroke="#8c959f" opacity="0.82"/>
<path class="edge edge-added" d="M642,352 L642,404" marker-end="url(#mk-added)" fill="none" stroke-width="1.5" stroke="#1f883d"/>
<path class="edge edge-added" d="M642,456 L642,508" marker-end="url(#mk-added)" fill="none" stroke-width="1.5" stroke="#1f883d"/>
<path class="edge edge-added" d="M642,570 L642,587 C642,596.39 634.39,604 625,604 L555,604 C550.03,604 546,608.03 546,613 L546,622" marker-end="url(#mk-added)" fill="none" stroke-width="1.5" stroke="#1f883d"/>
<path class="edge edge-added" d="M642,570 L642,579 C642,583.97 646.03,588 651,588 L721,588 C730.39,588 738,595.61 738,605 L738,622" marker-end="url(#mk-added)" fill="none" stroke-width="1.5" stroke="#1f883d"/>
<path class="edge edge-added" d="M546,674 L546,726" marker-end="url(#mk-added)" fill="none" stroke-width="1.5" stroke="#1f883d"/>
<path class="edge edge-added" d="M546,674 L546,683 C546,687.97 550.03,692 555,692 L721,692 C730.39,692 738,699.61 738,709 L738,726" marker-end="url(#mk-added)" fill="none" stroke-width="1.5" stroke="#1f883d"/>
<path class="edge edge-added" d="M594,778 L594,830" marker-end="url(#mk-added)" fill="none" stroke-width="1.5" stroke="#1f883d"/>
<path class="glow" d="M456,222 L443,222 C435.82,222 430,227.82 430,235 L430,739 C430,746.18 435.82,752 443,752 L456,752" fill="none" stroke="#1f883d" stroke-width="7" opacity="0.14"/>
<path class="edge edge-added hero" d="M456,222 L443,222 C435.82,222 430,227.82 430,235 L430,739 C430,746.18 435.82,752 443,752 L456,752" marker-end="url(#mk-added)" fill="none" stroke-width="2.25" stroke="#1f883d"/>
<circle r="3" fill="#1f883d"><animateMotion dur="2.1s" repeatCount="indefinite" path="M456,222 L443,222 C435.82,222 430,227.82 430,235 L430,739 C430,746.18 435.82,752 443,752 L456,752"/></circle>
<circle r="3" fill="#1f883d"><animateMotion dur="2.1s" begin="-1.4s" repeatCount="indefinite" path="M456,222 L443,222 C435.82,222 430,227.82 430,235 L430,739 C430,746.18 435.82,752 443,752 L456,752"/></circle>
<circle r="3" fill="#1f883d"><animateMotion dur="2.1s" begin="-0.7s" repeatCount="indefinite" path="M456,222 L443,222 C435.82,222 430,227.82 430,235 L430,739 C430,746.18 435.82,752 443,752 L456,752"/></circle>
<path class="edge edge-modified" d="M828,326 L841,326 C848.18,326 854,331.82 854,339 L854,635 C854,642.18 848.18,648 841,648 L828,648" marker-end="url(#mk-modified)" fill="none" stroke-width="1.5" stroke="#bf8700"/>
<path class="edge edge-added" d="M642,456 L642,473 C642,482.39 634.39,490 625,490 L474,490 C455.22,490 440,505.22 440,524 L440,861 C440,865.42 443.58,869 448,869 L456,869" marker-end="url(#mk-added)" fill="none" stroke-width="1.5" stroke="#1f883d"/>
<path class="edge edge-modified" d="M456,853 L453,853 C451.34,853 450,851.66 450,850 L450,237 C450,235.34 451.34,234 453,234 L456,234" marker-end="url(#mk-modified)" fill="none" stroke-width="1.5" stroke="#bf8700"/>
<path class="edge edge-added" d="M404,118 L407,118 C408.66,118 410,119.34 410,121 L410,148 C410,164.57 423.43,178 440,178 L812,178 C824.15,178 834,187.85 834,200 C834,212.15 843.85,222 856,222 L900,222" marker-end="url(#mk-added)" fill="none" stroke-width="1.5" stroke="#1f883d"/>
<path class="edge edge-modified" d="M828,853 L846,853 C855.94,853 864,861.06 864,871 L864,944 C864,953.94 872.06,962 882,962 L900,962" marker-end="url(#mk-modified)" fill="none" stroke-width="1.5" stroke="#bf8700"/>
<path class="edge edge-modified" d="M900,978 L892,978 C887.58,978 884,974.42 884,970 L884,897 C884,881.54 871.46,869 856,869 L828,869" marker-end="url(#mk-modified)" fill="none" stroke-width="1.5" stroke="#bf8700"/>
<path class="edge edge-removed" d="M642,1100 L642,1152" marker-end="url(#mk-removed)" fill="none" stroke-width="1.5" stroke="#cf222e" stroke-dasharray="5 4" opacity="0.7"/>
<path class="edge edge-removed" d="M828,222 L836,222 C840.42,222 844,225.58 844,230 L844,244 C844,256.15 853.85,266 866,266 L1256,266 C1274.78,266 1290,281.22 1290,300 L1290,988 C1290,1006.78 1274.78,1022 1256,1022 L900,1022 C885.64,1022 874,1033.64 874,1048 L874,1051 C874,1063.7 863.7,1074 851,1074 L828,1074" marker-end="url(#mk-removed)" fill="none" stroke-width="1.5" stroke="#cf222e" stroke-dasharray="5 4" opacity="0.7"/>
<path class="edge edge-removed" d="M828,1178 L864,1178 C880.57,1178 894,1164.57 894,1148 C894,1131.43 907.43,1118 924,1118 L1272,1118 C1290.78,1118 1306,1102.78 1306,1084 L1306,239 C1306,229.61 1298.39,222 1289,222 L1272,222" marker-end="url(#mk-removed)" fill="none" stroke-width="1.5" stroke="#cf222e" stroke-dasharray="5 4" opacity="0.7"/></g>
<g><g class="cardsh context" filter="drop-shadow(0 1px 2px rgba(31,35,40,.14))" opacity="0.82"><rect class="card" x="32" y="92" width="180" height="52" rx="10" fill="#ffffff" stroke="#d1d9e0" stroke-width="1"/>
<rect class="chip" x="46" y="105" width="26" height="26" rx="7" fill="#f1f3f5"/><g><rect class="glyph-stroke" x="52" y="112" width="14" height="12" rx="2" stroke="#59636e" stroke-width="1.4" fill="none"/>
<path class="glyph-stroke" d="M56.5,112 v12" stroke="#59636e" stroke-width="1.4" fill="none"/></g>
<text class="ntitle" x="82" y="123" font-size="11.5" font-weight="600" fill="#1f2328">Dashboard</text></g>
<g class="cardsh" filter="drop-shadow(0 1px 2px rgba(31,35,40,.14))"><rect class="card card-modified" x="224" y="92" width="180" height="52" rx="10" fill="#ffffff" stroke="#bf8700" stroke-width="1" stroke-opacity="0.5"/>
<rect class="chip" x="238" y="105" width="26" height="26" rx="7" fill="#f1f3f5"/><g><rect class="glyph-stroke" x="244" y="112" width="14" height="12" rx="2" stroke="#59636e" stroke-width="1.4" fill="none"/>
<path class="glyph-stroke" d="M248.5,112 v12" stroke="#59636e" stroke-width="1.4" fill="none"/></g>
<text class="ntitle" x="274" y="123" font-size="11.5" font-weight="600" fill="#1f2328">Settings panel</text>
<g class="bdg bdg-modified"><rect x="330.38" y="84" width="66.62" height="16" rx="8" stroke-width="1" fill="#fae17d" stroke="rgba(154,103,0,.55)"/><text x="363.69" y="95" text-anchor="middle" font-size="8.5" font-weight="700" letter-spacing=".06em" fill="#7d4e00">CHANGED</text></g></g>
<g class="cardsh" filter="drop-shadow(0 1px 2px rgba(31,35,40,.14))"><rect class="card card-modified" x="456" y="196" width="372" height="52" rx="10" fill="#ffffff" stroke="#bf8700" stroke-width="1" stroke-opacity="0.5"/>
<rect class="chip" x="470" y="209" width="26" height="26" rx="7" fill="#f1f3f5"/><g><path class="glyph" d="M476,216 L490,222 L476,228 Z" fill="#59636e"/></g>
<text class="ntitle" x="506" y="227" font-size="13" font-weight="600" fill="#1f2328">POST /api/plans</text>
<g class="bdg bdg-modified"><rect x="754.38" y="188" width="66.62" height="16" rx="8" stroke-width="1" fill="#fae17d" stroke="rgba(154,103,0,.55)"/><text x="787.69" y="199" text-anchor="middle" font-size="8.5" font-weight="700" letter-spacing=".06em" fill="#7d4e00">CHANGED</text></g></g>
<g class="cardsh context" filter="drop-shadow(0 1px 2px rgba(31,35,40,.14))" opacity="0.82"><rect class="card" x="456" y="300" width="372" height="52" rx="10" fill="#ffffff" stroke="#d1d9e0" stroke-width="1"/>
<rect class="chip" x="470" y="313" width="26" height="26" rx="7" fill="#f1f3f5"/><g><text class="glyph" x="483" y="330.5" text-anchor="middle" fill="#59636e" font-size="14" font-style="italic" font-family="Georgia,serif">ƒ</text></g>
<text class="ntitle" x="506" y="331" font-size="13" font-weight="600" fill="#1f2328">authorize</text></g>
<g class="cardsh" filter="drop-shadow(0 1px 2px rgba(31,35,40,.14))"><rect class="card card-added" x="456" y="404" width="372" height="52" rx="10" fill="#ffffff" stroke="#1f883d" stroke-width="1" stroke-opacity="0.55"/>
<rect class="chip" x="470" y="417" width="26" height="26" rx="7" fill="#f1f3f5"/><g><text class="glyph" x="483" y="434.5" text-anchor="middle" fill="#59636e" font-size="14" font-style="italic" font-family="Georgia,serif">ƒ</text></g>
<text class="ntitle" x="506" y="435" font-size="13" font-weight="600" fill="#1f2328">buildPlan</text>
<g class="bdg bdg-added"><rect x="780.45" y="396" width="40.55" height="16" rx="8" stroke-width="1" fill="#b9f0c4" stroke="rgba(31,136,61,.55)"/><text x="800.73" y="407" text-anchor="middle" font-size="8.5" font-weight="700" letter-spacing=".06em" fill="#116329">NEW</text></g></g>
<g class="cardsh" filter="drop-shadow(0 1px 2px rgba(31,35,40,.14))"><rect class="card card-added" x="456" y="508" width="372" height="62" rx="10" fill="#ffffff" stroke="#1f883d" stroke-width="1" stroke-opacity="0.55"/>
<rect class="chip" x="470" y="526" width="26" height="26" rx="7" fill="#f1f3f5"/><g><text class="glyph" x="483" y="543.5" text-anchor="middle" fill="#59636e" font-size="14" font-style="italic" font-family="Georgia,serif">ƒ</text></g>
<text class="ntitle" x="506" y="535" font-size="13" font-weight="600" fill="#1f2328">schedulePlan</text>
<text class="nsub" x="506" y="553" font-size="9.5" fill="#59636e" font-family="ui-monospace, SFMono-Regular, &quot;SF Mono&quot;, Menlo, Consolas, monospace">cron trigger</text>
<g class="bdg bdg-added"><rect x="780.45" y="500" width="40.55" height="16" rx="8" stroke-width="1" fill="#b9f0c4" stroke="rgba(31,136,61,.55)"/><text x="800.73" y="511" text-anchor="middle" font-size="8.5" font-weight="700" letter-spacing=".06em" fill="#116329">NEW</text></g></g>
<g class="cardsh" filter="drop-shadow(0 1px 2px rgba(31,35,40,.14))"><rect class="card card-modified" x="456" y="622" width="180" height="52" rx="10" fill="#ffffff" stroke="#bf8700" stroke-width="1" stroke-opacity="0.5"/>
<rect class="chip" x="470" y="635" width="26" height="26" rx="7" fill="#f1f3f5"/><g><text class="glyph" x="483" y="652.5" text-anchor="middle" fill="#59636e" font-size="14" font-style="italic" font-family="Georgia,serif">ƒ</text></g>
<text class="ntitle" x="506" y="653" font-size="11.5" font-weight="600" fill="#1f2328">executePlan</text>
<g class="bdg bdg-modified"><rect x="562.38" y="614" width="66.62" height="16" rx="8" stroke-width="1" fill="#fae17d" stroke="rgba(154,103,0,.55)"/><text x="595.69" y="625" text-anchor="middle" font-size="8.5" font-weight="700" letter-spacing=".06em" fill="#7d4e00">CHANGED</text></g></g>
<g class="cardsh context" filter="drop-shadow(0 1px 2px rgba(31,35,40,.14))" opacity="0.82"><rect class="card" x="648" y="622" width="180" height="52" rx="10" fill="#ffffff" stroke="#d1d9e0" stroke-width="1"/>
<rect class="chip" x="662" y="635" width="26" height="26" rx="7" fill="#f1f3f5"/><g><text class="glyph" x="675" y="652.5" text-anchor="middle" fill="#59636e" font-size="14" font-style="italic" font-family="Georgia,serif">ƒ</text></g>
<text class="ntitle" x="698" y="653" font-size="11.5" font-weight="600" fill="#1f2328">recordMetrics</text></g>
<g class="cardsh" filter="drop-shadow(0 1px 2px rgba(31,35,40,.14))"><rect class="card card-added" x="456" y="726" width="180" height="52" rx="10" fill="#ffffff" stroke="#1f883d" stroke-width="1" stroke-opacity="0.55"/>
<rect class="chip" x="470" y="739" width="26" height="26" rx="7" fill="#f1f3f5"/><g><text class="glyph" x="483" y="756.5" text-anchor="middle" fill="#59636e" font-size="14" font-style="italic" font-family="Georgia,serif">ƒ</text></g>
<text class="ntitle" x="506" y="757" font-size="11.5" font-weight="600" fill="#1f2328">batchResults</text>
<g class="bdg bdg-added"><rect x="588.45" y="718" width="40.55" height="16" rx="8" stroke-width="1" fill="#b9f0c4" stroke="rgba(31,136,61,.55)"/><text x="608.73" y="729" text-anchor="middle" font-size="8.5" font-weight="700" letter-spacing=".06em" fill="#116329">NEW</text></g></g>
<g class="cardsh" filter="drop-shadow(0 1px 2px rgba(31,35,40,.14))"><rect class="card card-added" x="648" y="726" width="180" height="52" rx="10" fill="#ffffff" stroke="#1f883d" stroke-width="1" stroke-opacity="0.55"/>
<rect class="chip" x="662" y="739" width="26" height="26" rx="7" fill="#f1f3f5"/><g><text class="glyph" x="675" y="756.5" text-anchor="middle" fill="#59636e" font-size="14" font-style="italic" font-family="Georgia,serif">ƒ</text></g>
<text class="ntitle" x="698" y="757" font-size="11.5" font-weight="600" fill="#1f2328">auditTrail</text>
<g class="bdg bdg-added"><rect x="780.45" y="718" width="40.55" height="16" rx="8" stroke-width="1" fill="#b9f0c4" stroke="rgba(31,136,61,.55)"/><text x="800.73" y="729" text-anchor="middle" font-size="8.5" font-weight="700" letter-spacing=".06em" fill="#116329">NEW</text></g></g>
<g class="cardsh" filter="drop-shadow(0 1px 2px rgba(31,35,40,.14))"><rect class="card card-modified" x="456" y="830" width="372" height="62" rx="10" fill="#ffffff" stroke="#bf8700" stroke-width="1" stroke-opacity="0.5"/>
<rect class="chip" x="470" y="848" width="26" height="26" rx="7" fill="#f1f3f5"/><g><ellipse class="glyph-stroke" cx="483" cy="856.5" rx="6.5" ry="2.6" stroke="#59636e" stroke-width="1.4" fill="none"/>
<path class="glyph-stroke" d="M476.5,856.5 v9 a6.5,2.6 0 0 0 13 0 v-9" stroke="#59636e" stroke-width="1.4" fill="none"/></g>
<text class="ntitle" x="506" y="857" font-size="13" font-weight="600" fill="#1f2328">planStore</text>
<text class="nsub" x="506" y="875" font-size="9.5" fill="#59636e" font-family="ui-monospace, SFMono-Regular, &quot;SF Mono&quot;, Menlo, Consolas, monospace">results table</text>
<g class="bdg bdg-modified"><rect x="754.38" y="822" width="66.62" height="16" rx="8" stroke-width="1" fill="#fae17d" stroke="rgba(154,103,0,.55)"/><text x="787.69" y="833" text-anchor="middle" font-size="8.5" font-weight="700" letter-spacing=".06em" fill="#7d4e00">CHANGED</text></g></g>
<g class="cardsh ghost" filter="drop-shadow(0 1px 2px rgba(31,35,40,.14))" opacity="0.55"><rect class="card" x="456" y="1048" width="372" height="52" rx="10" fill="#ffffff" stroke="#cf222e" stroke-width="1" stroke-dasharray="4 3" stroke-opacity="0.6"/>
<rect class="chip" x="470" y="1061" width="26" height="26" rx="7" fill="#f1f3f5"/><g><circle class="glyph-stroke" cx="483" cy="1074" r="6.5" stroke="#59636e" stroke-width="1.4" fill="none"/>
<path class="glyph-stroke" d="M483,1070.5 V1074 H486" stroke="#59636e" stroke-width="1.4" fill="none"/></g>
<text class="ntitle strike" x="506" y="1079" font-size="13" font-weight="600" fill="#1f2328" text-decoration="line-through">legacyPoller</text>
<g class="bdg bdg-removed"><rect x="753.88" y="1040" width="67.12" height="16" rx="8" stroke-width="1" fill="#ffcecb" stroke="rgba(207,34,46,.5)"/><text x="787.44" y="1051" text-anchor="middle" font-size="8.5" font-weight="700" letter-spacing=".06em" fill="#a40e26">REMOVED</text></g></g>
<g class="cardsh ghost" filter="drop-shadow(0 1px 2px rgba(31,35,40,.14))" opacity="0.55"><rect class="card" x="456" y="1152" width="372" height="52" rx="10" fill="#ffffff" stroke="#cf222e" stroke-width="1" stroke-dasharray="4 3" stroke-opacity="0.6"/>
<rect class="chip" x="470" y="1165" width="26" height="26" rx="7" fill="#f1f3f5"/><g><path class="glyph-stroke" d="M476.5,1173.5 h13" stroke="#59636e" stroke-width="1.4" fill="none"/>
<path class="glyph-stroke" d="M476.5,1178 h13" stroke="#59636e" stroke-width="1.4" fill="none"/>
<path class="glyph-stroke" d="M476.5,1182.5 h13" stroke="#59636e" stroke-width="1.4" fill="none"/></g>
<text class="ntitle strike" x="506" y="1183" font-size="13" font-weight="600" fill="#1f2328" text-decoration="line-through">pollQueue</text>
<g class="bdg bdg-removed"><rect x="753.88" y="1144" width="67.12" height="16" rx="8" stroke-width="1" fill="#ffcecb" stroke="rgba(207,34,46,.5)"/><text x="787.44" y="1155" text-anchor="middle" font-size="8.5" font-weight="700" letter-spacing=".06em" fill="#a40e26">REMOVED</text></g></g>
<g class="cardsh context" filter="drop-shadow(0 1px 2px rgba(31,35,40,.14))" opacity="0.82"><rect class="card" x="900" y="196" width="372" height="52" rx="10" fill="#ffffff" stroke="#d1d9e0" stroke-width="1"/>
<rect class="chip" x="914" y="209" width="26" height="26" rx="7" fill="#f1f3f5"/><g><rect class="glyph-stroke" x="919" y="216" width="16" height="12" rx="2" stroke="#59636e" stroke-width="1.4" fill="none"/>
<path class="glyph-stroke" d="M919,218 l8,6 8,-6" stroke="#59636e" stroke-width="1.4" fill="none"/></g>
<text class="ntitle" x="950" y="227" font-size="13" font-weight="600" fill="#1f2328">Object storage</text></g>
<g class="cardsh" filter="drop-shadow(0 1px 2px rgba(31,35,40,.14))"><rect class="card card-modified" x="900" y="944" width="372" height="52" rx="10" fill="#ffffff" stroke="#bf8700" stroke-width="1" stroke-opacity="0.5"/>
<rect class="chip" x="914" y="957" width="26" height="26" rx="7" fill="#f1f3f5"/><g><ellipse class="glyph-stroke" cx="927" cy="965.5" rx="6.5" ry="2.6" stroke="#59636e" stroke-width="1.4" fill="none"/>
<path class="glyph-stroke" d="M920.5,965.5 v9 a6.5,2.6 0 0 0 13 0 v-9" stroke="#59636e" stroke-width="1.4" fill="none"/></g>
<text class="ntitle" x="950" y="975" font-size="13" font-weight="600" fill="#1f2328">Postgres</text>
<g class="bdg bdg-modified"><rect x="1198.38" y="936" width="66.62" height="16" rx="8" stroke-width="1" fill="#fae17d" stroke="rgba(154,103,0,.55)"/><text x="1231.69" y="947" text-anchor="middle" font-size="8.5" font-weight="700" letter-spacing=".06em" fill="#7d4e00">CHANGED</text></g></g></g>
<g><g><rect class="lpill" x="233.95" y="154.5" width="59.1" height="15" rx="7.5" fill="#ffffff" stroke="#d8dee4" stroke-width="1"/><text class="ltext" x="263.5" y="165.5" text-anchor="middle" font-size="9.5" font-weight="600" fill="#59636e">save plan</text></g>
<g><rect class="lpill" x="523.73" y="692.5" width="44.54" height="15" rx="7.5" fill="#ffffff" stroke="#d8dee4" stroke-width="1"/><text class="ltext ltext-added" x="546" y="703.5" text-anchor="middle" font-size="9.5" font-weight="600" fill="#116329">collect</text></g>
<g><rect class="lpill" x="402.69" y="479.5" width="54.63" height="15" rx="7.5" fill="#ffffff" stroke="#d8dee4" stroke-width="1"/><text class="ltext ltext-added" x="430" y="490.5" text-anchor="middle" font-size="9.5" font-weight="600" fill="#116329">fast path</text></g>
<g><rect class="lpill" x="824.46" y="479.5" width="59.09" height="15" rx="7.5" fill="#ffffff" stroke="#d8dee4" stroke-width="1"/><text class="ltext ltext-modified" x="854" y="490.5" text-anchor="middle" font-size="9.5" font-weight="600" fill="#7d4e00">emit stats</text></g>
<g><rect class="lpill" x="406.26" y="685" width="67.49" height="15" rx="7.5" fill="#ffffff" stroke="#d8dee4" stroke-width="1"/><text class="ltext ltext-added" x="440" y="696" text-anchor="middle" font-size="9.5" font-weight="600" fill="#116329">persist plan</text></g>
<g><rect class="lpill" x="411.78" y="536" width="76.44" height="15" rx="7.5" fill="#ffffff" stroke="#d8dee4" stroke-width="1"/><text class="ltext ltext-modified" x="450" y="547" text-anchor="middle" font-size="9.5" font-weight="600" fill="#7d4e00">backpressure</text></g>
<g><rect class="lpill" x="587.5" y="170.5" width="77.01" height="15" rx="7.5" fill="#ffffff" stroke="#d8dee4" stroke-width="1"/><text class="ltext ltext-added" x="626" y="181.5" text-anchor="middle" font-size="9.5" font-weight="600" fill="#116329">upload avatar</text></g>
<g><rect class="lpill" x="833.34" y="900" width="61.32" height="15" rx="7.5" fill="#ffffff" stroke="#d8dee4" stroke-width="1"/><text class="ltext ltext-modified" x="864" y="911" text-anchor="middle" font-size="9.5" font-weight="600" fill="#7d4e00">write rows</text></g>
<g><rect class="lpill" x="854.18" y="926" width="59.65" height="15" rx="7.5" fill="#ffffff" stroke="#d8dee4" stroke-width="1"/><text class="ltext ltext-modified" x="884" y="937" text-anchor="middle" font-size="9.5" font-weight="600" fill="#7d4e00">row count</text></g>
<g><rect class="lpill" x="622.8" y="1118.5" width="38.39" height="15" rx="7.5" fill="#ffffff" stroke="#d8dee4" stroke-width="1"/><text class="ltext ltext-removed" x="642" y="1129.5" text-anchor="middle" font-size="9.5" font-weight="600" fill="#a40e26">drain</text></g>
<g><rect class="lpill" x="1265.21" y="636.5" width="49.57" height="15" rx="7.5" fill="#ffffff" stroke="#d8dee4" stroke-width="1"/><text class="ltext ltext-removed" x="1290" y="647.5" text-anchor="middle" font-size="9.5" font-weight="600" fill="#a40e26">poll tick</text></g>
<g><rect class="lpill" x="1273.94" y="654" width="64.13" height="15" rx="7.5" fill="#ffffff" stroke="#d8dee4" stroke-width="1"/><text class="ltext ltext-removed" x="1306" y="665" text-anchor="middle" font-size="9.5" font-weight="600" fill="#a40e26">flush blobs</text></g></g>
</svg>